<?xml version="1.0" encoding="utf-8"?>
<!-- Generator: Adobe Illustrator 23.0.4, SVG Export Plug-In . SVG Version: 6.00 Build 0)  -->
<svg version="1.1" id="Layer_1" xmlns="http://www.w3.org/2000/svg" xmlns:xlink="http://www.w3.org/1999/xlink" x="0px" y="0px"
	 viewBox="0 0 40.6 38" style="enable-background:new 0 0 40.6 38;" xml:space="preserve">
<style type="text/css">
	.st0{fill:#3051A0;}
	.st1{fill:#FFFFFF;}
</style>
<title>Asset 1</title>
<g>
	<g id="Layer_1-2">
		<g id="Top">
			<path id="Rectangle_1480" class="st0" d="M8,0h24.6c4.4,0,8,3.6,8,8v30H0V8C0,3.6,3.6,0,8,0z"/>
			<path id="Polygon_1" class="st1" d="M20.1,7c0.1-0.1,0.3-0.1,0.4,0l8.8,7.1c0.1,0.1,0.1,0.3,0,0.4c0,0,0,0,0,0
				c-0.1,0.1-0.1,0.1-0.2,0.1H11.5c-0.2,0-0.3-0.1-0.3-0.3l0,0c0-0.1,0-0.2,0.1-0.2L20.1,7z"/>
			<g>
				<path class="st1" d="M10.5,23.2v-1.4h5.7v1.4h-2v6.3h-1.6v-6.4H10.5z"/>
				<path class="st1" d="M22.5,28.7c-0.6,0.7-1.6,1-2.5,0.9c-0.9,0.1-1.9-0.3-2.5-1c-0.5-0.9-0.8-2-0.7-3c-0.1-1.1,0.2-2.1,0.7-3
					c0.6-0.7,1.5-1.1,2.5-1c0.9-0.1,1.9,0.3,2.5,1c0.5,0.9,0.8,2,0.7,3C23.3,26.8,23,27.8,22.5,28.7z M18.7,27.7
					c0.3,0.4,0.8,0.7,1.3,0.6c0.5,0.1,1-0.2,1.3-0.6c0.3-0.6,0.4-1.3,0.3-2c0-0.7-0.1-1.4-0.3-2C21,23.3,20.5,23,20,23.1
					c-0.5-0.1-1,0.2-1.3,0.6c-0.3,0.6-0.4,1.3-0.3,2C18.3,26.4,18.4,27.1,18.7,27.7z"/>
				<path class="st1" d="M27.4,27.3h-1.3v2.2h-1.6v-7.7h2.8c1.8,0,2.8,0.9,2.8,2.7c0,0.8-0.2,1.5-0.7,2.1
					C28.9,27.1,28.1,27.4,27.4,27.3z M26.1,26h1.3c0.8,0,1.2-0.5,1.2-1.5c0-0.4-0.1-0.7-0.3-1c-0.2-0.2-0.6-0.3-0.9-0.3h-1.3V26z"/>
			</g>
		</g>
	</g>
</g>
</svg>
